<svg id="svg" version="1.1" xmlns="http://www.w3.org/2000/svg" xmlns:xlink="http://www.w3.org/1999/xlink" width="400" height="140.74074074074073" viewBox="0, 0, 400,140.74074074074073"><g id="svgg"><path id="path0" d="M328.167 69.250 L 328.167 95.333 333.333 95.333 L 338.500 95.333 338.500 86.994 L 338.500 78.655 338.962 79.203 C 339.217 79.504,339.984 80.500,340.668 81.417 C 341.352 82.333,342.186 83.404,342.522 83.795 C 342.857 84.187,343.475 85.012,343.896 85.629 C 344.316 86.245,344.930 87.042,345.260 87.399 C 345.590 87.756,346.058 88.356,346.300 88.732 C 346.722 89.391,347.053 89.827,348.042 91.027 C 348.294 91.333,349.119 92.408,349.875 93.417 L 351.250 95.250 357.375 95.294 C 360.744 95.318,363.500 95.294,363.500 95.241 C 363.500 94.964,362.855 94.097,360.181 90.782 C 358.569 88.783,356.800 86.561,356.250 85.843 C 355.700 85.126,354.898 84.137,354.468 83.645 C 354.038 83.153,353.470 82.427,353.206 82.033 C 352.942 81.638,352.340 80.851,351.868 80.283 C 351.397 79.715,350.173 78.207,349.148 76.932 L 347.285 74.615 355.317 66.682 C 359.735 62.320,363.345 58.694,363.341 58.625 C 363.337 58.556,360.623 58.500,357.311 58.500 L 351.289 58.500 346.603 63.232 C 344.025 65.834,341.167 68.732,340.250 69.672 L 338.583 71.381 338.541 57.274 L 338.498 43.167 333.332 43.167 L 328.167 43.167 328.167 69.250 M228.333 50.000 L 228.333 54.667 235.083 54.667 L 241.832 54.667 241.874 74.958 L 241.917 95.250 247.375 95.294 L 252.833 95.338 252.833 75.002 L 252.833 54.667 258.802 54.667 L 264.770 54.667 265.569 52.292 C 266.009 50.985,266.479 49.678,266.614 49.387 C 267.055 48.438,267.981 45.605,267.896 45.467 C 267.851 45.394,258.931 45.333,248.073 45.333 L 228.333 45.333 228.333 50.000 M272.167 57.585 C 268.784 58.253,265.652 60.008,262.948 62.750 C 257.468 68.307,256.307 81.366,260.694 88.106 C 261.103 88.735,261.579 89.475,261.750 89.750 C 263.680 92.843,268.638 95.574,273.417 96.175 C 277.190 96.650,285.501 95.821,286.744 94.846 C 286.839 94.772,287.329 94.578,287.833 94.416 C 288.337 94.254,289.040 93.975,289.395 93.797 L 290.039 93.473 289.932 90.528 C 289.708 84.355,289.735 84.458,288.526 85.333 C 288.147 85.608,287.793 85.833,287.741 85.833 C 287.688 85.833,287.230 86.023,286.721 86.256 C 282.974 87.970,276.720 88.621,273.750 87.607 C 270.534 86.508,268.037 83.438,268.002 80.542 C 268.001 80.377,270.523 80.333,280.067 80.333 L 292.135 80.333 292.256 78.555 C 292.506 74.887,291.893 70.096,290.892 67.886 C 290.676 67.410,290.500 66.939,290.500 66.839 C 290.500 66.739,290.265 66.191,289.977 65.620 C 288.204 62.102,285.271 59.452,282.000 58.414 C 281.496 58.254,281.004 58.060,280.907 57.984 C 280.176 57.410,274.389 57.146,272.167 57.585 M311.167 57.521 C 310.662 57.603,310.137 57.718,310.000 57.778 C 309.862 57.837,309.651 57.870,309.529 57.849 C 309.408 57.829,309.220 57.880,309.113 57.962 C 309.005 58.044,308.392 58.283,307.750 58.492 C 296.479 62.167,291.454 76.435,297.563 87.417 C 299.295 90.529,303.949 94.667,305.718 94.667 C 305.873 94.667,306.000 94.738,306.000 94.826 C 306.000 95.020,308.153 95.706,309.750 96.020 C 311.258 96.317,316.658 96.326,318.250 96.035 C 319.661 95.776,322.383 95.017,322.499 94.850 C 322.546 94.784,323.005 94.560,323.520 94.354 L 324.457 93.979 324.384 91.781 C 324.344 90.572,324.241 89.176,324.156 88.678 C 324.070 88.180,324.000 87.261,324.000 86.636 C 324.000 86.011,323.973 85.500,323.940 85.500 C 323.907 85.500,323.324 85.757,322.645 86.071 C 315.575 89.337,308.722 87.617,306.428 82.000 C 306.259 81.587,306.025 81.025,305.907 80.750 C 304.008 76.310,306.651 69.024,310.946 66.862 C 314.008 65.320,319.455 65.614,322.259 67.471 C 322.954 67.932,323.330 68.102,323.335 67.958 C 323.335 67.935,323.447 66.417,323.582 64.583 C 323.718 62.750,323.830 60.816,323.831 60.286 L 323.833 59.321 323.074 58.996 C 322.657 58.817,321.888 58.548,321.366 58.399 C 320.844 58.249,320.342 58.071,320.250 58.003 C 320.158 57.934,319.971 57.870,319.833 57.858 C 319.696 57.847,319.021 57.727,318.333 57.592 C 316.941 57.319,312.675 57.276,311.167 57.521 M278.196 65.488 C 280.451 66.179,282.181 68.680,282.603 71.860 L 282.710 72.667 275.344 72.667 L 267.978 72.667 268.084 72.292 C 268.898 69.421,268.981 69.263,270.812 67.147 C 272.215 65.525,275.737 64.734,278.196 65.488 " stroke="none" fill="#040c7c" fill-rule="evenodd"></path><path id="path1" d="M214.939 36.708 C 214.809 36.915,214.156 38.696,213.489 40.667 C 212.821 42.637,212.220 44.288,212.154 44.333 C 212.088 44.379,211.883 44.867,211.698 45.417 C 210.610 48.651,209.140 52.748,209.013 52.903 C 208.875 53.070,208.252 54.828,206.702 59.417 C 206.362 60.425,206.026 61.293,205.955 61.345 C 205.884 61.398,205.227 63.192,204.493 65.332 C 203.760 67.473,203.097 69.305,203.019 69.404 C 202.893 69.564,201.323 73.974,200.462 76.583 C 200.281 77.133,200.078 77.621,200.012 77.667 C 199.911 77.736,197.891 83.409,197.281 85.333 C 197.180 85.654,197.045 85.954,196.982 86.000 C 196.878 86.075,196.201 87.971,194.660 92.500 C 194.363 93.371,194.056 94.166,193.976 94.268 C 193.836 94.447,192.863 97.146,191.580 100.917 C 191.237 101.925,190.904 102.787,190.839 102.833 C 190.613 102.994,190.329 104.062,190.474 104.207 C 190.554 104.287,191.018 104.329,191.505 104.301 L 192.391 104.250 193.125 102.085 C 193.529 100.894,193.927 99.838,194.011 99.737 C 194.139 99.582,196.507 92.926,196.793 91.917 C 196.845 91.733,196.941 91.546,197.006 91.500 C 197.114 91.425,197.990 88.976,199.364 84.917 C 199.643 84.092,199.925 83.379,199.992 83.333 C 200.058 83.287,200.155 83.100,200.207 82.917 C 200.259 82.733,200.729 81.383,201.252 79.917 C 201.774 78.450,202.339 76.814,202.505 76.282 C 202.672 75.750,202.888 75.218,202.985 75.101 C 203.129 74.927,205.450 68.434,205.791 67.250 C 205.844 67.067,205.941 66.879,206.006 66.833 C 206.116 66.756,206.953 64.402,208.465 59.917 C 208.805 58.908,209.141 58.040,209.212 57.988 C 209.282 57.936,209.940 56.142,210.673 54.001 C 211.407 51.861,212.072 50.029,212.152 49.930 C 212.297 49.751,212.823 48.282,214.277 44.000 C 214.698 42.762,215.095 41.712,215.161 41.667 C 215.277 41.585,217.002 36.704,217.001 36.458 C 216.999 36.116,215.172 36.338,214.939 36.708 M52.417 49.701 C 51.537 50.206,51.342 51.858,52.076 52.591 C 52.773 53.289,54.534 53.038,54.995 52.176 C 55.842 50.592,53.980 48.805,52.417 49.701 M69.000 57.250 L 69.000 64.667 70.404 64.667 L 71.809 64.667 71.863 61.231 L 71.917 57.796 72.492 57.316 C 73.509 56.468,74.678 56.521,75.283 57.443 C 75.539 57.834,75.596 58.396,75.667 61.242 L 75.750 64.583 77.125 64.632 L 78.500 64.680 78.500 60.953 C 78.500 56.774,78.392 56.181,77.436 55.139 C 76.340 53.944,73.147 53.822,72.232 54.941 C 71.872 55.380,71.833 55.141,71.833 52.500 L 71.833 49.833 70.417 49.833 L 69.000 49.833 69.000 57.250 M80.533 56.549 C 80.589 63.997,80.560 63.801,81.717 64.507 C 82.245 64.829,83.656 64.955,84.236 64.732 C 84.774 64.526,84.531 62.082,83.989 62.253 C 83.390 62.444,83.333 61.886,83.333 55.761 L 83.333 49.833 81.908 49.833 L 80.483 49.833 80.533 56.549 M116.000 52.526 C 116.000 55.177,115.995 55.214,115.678 54.927 C 115.172 54.469,114.174 54.182,113.063 54.174 C 111.317 54.161,110.672 54.509,109.173 56.268 C 108.395 57.182,108.100 59.563,108.522 61.529 C 109.106 64.254,113.014 65.791,115.259 64.178 L 116.000 63.646 116.000 64.156 L 116.000 64.667 117.417 64.667 L 118.833 64.667 118.833 57.250 L 118.833 49.833 117.417 49.833 L 116.000 49.833 116.000 52.526 M147.833 56.406 C 147.833 60.339,147.900 63.153,147.998 63.412 C 148.406 64.483,149.472 64.962,151.038 64.777 C 152.057 64.656,151.960 64.816,151.872 63.394 L 151.798 62.205 151.274 62.227 L 150.750 62.250 150.706 56.042 L 150.663 49.833 149.248 49.833 L 147.833 49.833 147.833 56.406 M153.334 56.542 C 153.335 64.643,153.392 64.833,155.811 64.833 C 157.105 64.833,157.167 64.777,157.164 63.607 C 157.161 62.442,157.050 62.178,156.581 62.220 C 156.257 62.249,156.249 62.120,156.206 56.042 L 156.163 49.833 154.748 49.833 L 153.333 49.833 153.334 56.542 M37.500 57.500 L 37.500 64.667 38.917 64.667 L 40.333 64.667 40.333 61.667 L 40.333 58.667 43.417 58.667 L 46.500 58.667 46.500 61.667 L 46.500 64.667 47.917 64.667 L 49.333 64.667 49.333 57.500 L 49.333 50.333 47.917 50.333 L 46.500 50.333 46.500 53.167 L 46.500 56.000 43.417 56.000 L 40.333 56.000 40.333 53.167 L 40.333 50.333 38.917 50.333 L 37.500 50.333 37.500 57.500 M123.500 50.387 C 123.500 50.561,124.072 52.115,124.193 52.270 C 124.273 52.373,124.975 54.319,125.752 56.593 C 126.529 58.868,127.221 60.771,127.291 60.823 C 127.360 60.874,127.692 61.742,128.029 62.750 L 128.642 64.583 130.196 64.626 L 131.750 64.669 132.486 62.460 C 132.890 61.244,133.273 60.212,133.337 60.167 C 133.454 60.081,135.973 52.888,136.123 52.208 C 136.168 52.002,136.260 51.833,136.326 51.833 C 136.433 51.833,136.833 50.727,136.833 50.433 C 136.833 50.371,136.182 50.342,135.386 50.369 L 133.938 50.417 133.675 51.167 C 133.531 51.579,133.351 52.014,133.275 52.134 C 133.198 52.253,132.521 54.235,131.770 56.539 C 131.018 58.842,130.325 60.753,130.229 60.785 C 130.132 60.817,129.476 59.078,128.755 56.880 C 128.041 54.700,127.403 52.879,127.337 52.833 C 127.272 52.788,127.055 52.206,126.854 51.542 L 126.490 50.333 124.995 50.333 C 124.173 50.333,123.500 50.357,123.500 50.387 M59.311 54.463 C 58.350 54.918,57.198 56.054,56.801 56.938 C 56.069 58.568,56.544 63.141,57.449 63.171 C 57.523 63.174,57.906 63.471,58.300 63.832 C 59.686 65.103,62.190 65.209,63.436 64.049 L 63.917 63.602 63.970 64.243 C 64.052 65.231,63.898 65.577,63.142 66.100 C 61.883 66.972,59.500 66.615,59.500 65.554 C 59.500 65.388,59.149 65.333,58.083 65.333 C 56.534 65.333,56.549 65.321,56.843 66.380 C 57.776 69.738,64.453 69.999,66.152 66.744 C 66.389 66.289,66.640 65.892,66.708 65.861 C 66.777 65.831,66.833 63.224,66.833 60.069 L 66.833 54.333 65.500 54.333 L 64.167 54.333 64.167 54.862 L 64.167 55.391 63.789 55.037 C 62.856 54.160,60.568 53.867,59.311 54.463 M88.250 54.468 C 86.859 54.952,86.018 55.931,85.745 57.383 L 85.630 58.000 86.990 58.000 C 88.344 58.000,88.352 57.997,88.520 57.513 C 89.073 55.928,91.833 56.341,92.110 58.051 L 92.210 58.667 90.563 58.669 C 86.881 58.673,85.378 59.693,85.530 62.083 C 85.697 64.703,89.862 65.971,91.767 63.982 L 92.240 63.488 92.756 64.103 C 93.300 64.751,94.507 65.035,95.576 64.767 C 96.291 64.587,96.161 62.140,95.440 62.214 C 95.093 62.249,95.080 62.178,94.976 59.631 C 94.871 57.076,94.502 55.500,94.008 55.500 C 93.937 55.500,93.685 55.306,93.449 55.070 C 92.564 54.185,89.936 53.881,88.250 54.468 M101.234 54.484 C 100.858 54.655,100.490 54.934,100.416 55.106 C 100.300 55.372,100.267 55.344,100.181 54.917 L 100.081 54.417 98.707 54.368 L 97.333 54.320 97.333 59.493 L 97.333 64.667 98.750 64.667 L 100.167 64.667 100.167 61.542 C 100.167 57.421,100.687 56.373,102.535 56.770 C 103.813 57.045,103.908 57.342,103.973 61.262 L 104.030 64.667 105.431 64.667 L 106.833 64.667 106.832 60.958 C 106.831 56.760,106.747 56.284,105.836 55.336 C 104.693 54.147,102.763 53.789,101.234 54.484 M138.976 54.387 C 137.716 54.744,136.502 56.209,136.501 57.375 L 136.500 58.000 137.750 58.000 C 138.874 58.000,139.000 57.968,139.000 57.678 C 139.000 57.337,139.655 56.792,140.306 56.589 C 141.313 56.276,142.613 57.037,142.774 58.035 L 142.871 58.631 140.811 58.691 C 138.423 58.760,137.483 59.102,136.592 60.224 C 135.979 60.995,135.848 62.706,136.362 63.219 C 136.516 63.373,136.795 63.694,136.984 63.934 C 137.805 64.977,141.810 65.154,142.140 64.162 C 142.318 63.628,143.070 63.640,143.513 64.182 C 143.889 64.644,144.080 64.729,144.884 64.796 C 146.572 64.936,146.667 64.862,146.667 63.407 L 146.667 62.154 146.208 62.202 L 145.750 62.250 145.703 60.003 C 145.678 58.768,145.584 57.684,145.495 57.595 C 145.406 57.506,145.333 57.295,145.333 57.125 C 145.333 55.006,141.946 53.547,138.976 54.387 M161.450 54.398 C 157.033 56.041,157.001 63.260,161.405 64.586 C 162.790 65.003,165.573 64.778,165.985 64.216 C 166.039 64.142,166.365 63.871,166.710 63.614 C 167.400 63.100,168.000 62.081,168.000 61.423 C 168.000 60.704,165.545 60.777,165.129 61.508 C 164.195 63.149,161.551 62.570,161.100 60.625 L 160.994 60.167 164.580 60.167 L 168.167 60.167 168.163 59.792 C 168.127 55.651,164.947 53.097,161.450 54.398 M52.000 59.500 L 52.000 64.667 53.417 64.667 L 54.833 64.667 54.833 59.500 L 54.833 54.333 53.417 54.333 L 52.000 54.333 52.000 59.500 M168.439 54.792 C 168.603 55.466,169.536 57.903,169.667 58.000 C 169.729 58.046,169.822 58.233,169.874 58.417 C 169.927 58.600,170.321 59.725,170.750 60.917 C 172.244 65.067,172.151 64.719,171.911 65.291 C 171.570 66.101,170.983 66.395,169.927 66.286 L 169.031 66.194 168.916 67.337 C 168.767 68.826,168.774 68.833,170.402 68.833 C 173.195 68.833,174.106 67.951,175.348 64.042 C 175.559 63.377,175.790 62.833,175.859 62.833 C 175.929 62.833,176.135 62.365,176.316 61.792 C 176.498 61.219,177.034 59.663,177.508 58.333 C 177.982 57.004,178.453 55.635,178.553 55.292 C 178.653 54.948,178.795 54.667,178.868 54.667 C 178.940 54.667,179.000 54.592,179.000 54.500 C 179.000 54.401,178.399 54.333,177.531 54.333 L 176.062 54.333 175.718 55.125 C 175.307 56.072,173.836 60.750,173.827 61.142 C 173.823 61.293,173.605 60.756,173.342 59.949 C 173.078 59.142,172.751 58.242,172.614 57.949 C 172.402 57.496,172.229 56.948,171.561 54.625 C 171.489 54.374,171.259 54.333,169.902 54.333 L 168.327 54.333 168.439 54.792 M164.414 56.861 C 164.844 57.199,165.440 58.283,165.282 58.440 C 165.244 58.479,164.264 58.489,163.106 58.463 L 161.000 58.417 161.343 57.725 C 161.924 56.551,163.468 56.117,164.414 56.861 M62.467 56.900 C 65.049 58.238,64.044 62.678,61.252 62.259 C 60.035 62.076,59.330 61.038,59.337 59.438 C 59.346 57.366,60.913 56.095,62.467 56.900 M114.630 57.022 C 116.430 57.894,116.444 60.972,114.652 61.951 C 112.417 63.172,110.450 60.833,111.471 58.170 C 111.983 56.834,113.273 56.366,114.630 57.022 M92.078 60.875 C 91.707 62.621,88.333 63.234,88.333 61.556 C 88.333 60.742,89.137 60.375,90.972 60.350 L 92.193 60.333 92.078 60.875 M142.767 60.872 C 142.505 62.181,140.191 63.030,139.160 62.195 C 138.133 61.363,139.497 60.343,141.646 60.337 L 142.875 60.333 142.767 60.872 M41.822 72.001 C 40.048 72.302,38.353 73.631,37.498 75.391 C 35.924 78.632,36.785 83.765,39.144 85.198 C 39.477 85.400,39.787 85.615,39.833 85.676 C 40.535 86.607,44.605 86.851,46.465 86.074 C 48.038 85.417,49.667 83.074,49.667 81.470 L 49.667 81.000 48.285 81.000 L 46.902 81.000 46.593 81.911 C 46.019 83.598,44.276 84.376,42.297 83.826 C 38.946 82.895,38.668 76.320,41.917 74.816 C 43.817 73.936,46.221 74.912,46.684 76.750 L 46.873 77.500 48.270 77.500 L 49.667 77.500 49.667 76.923 C 49.667 73.654,45.926 71.307,41.822 72.001 M54.523 76.031 C 50.688 76.888,49.354 82.199,52.240 85.121 C 54.069 86.972,57.674 87.088,59.453 85.352 C 60.628 84.206,60.880 83.838,61.118 82.922 C 62.252 78.561,58.896 75.055,54.523 76.031 M67.500 76.027 C 67.179 76.116,66.635 76.413,66.292 76.686 L 65.667 77.182 65.667 76.591 L 65.667 76.000 64.250 76.000 L 62.833 76.000 62.833 83.250 L 62.833 90.500 64.250 90.500 L 65.667 90.500 65.670 87.875 C 65.674 85.356,65.686 85.265,65.962 85.618 C 67.095 87.068,70.624 86.798,71.920 85.163 C 72.281 84.707,72.628 84.333,72.692 84.333 C 73.254 84.333,73.602 80.509,73.177 79.003 C 72.573 76.860,69.770 75.391,67.500 76.027 M79.667 76.029 C 79.346 76.120,78.845 76.376,78.553 76.597 C 77.877 77.110,77.833 77.104,77.833 76.500 L 77.833 76.000 76.417 76.000 L 75.000 76.000 75.000 83.250 L 75.000 90.500 76.417 90.500 L 77.833 90.500 77.837 87.875 C 77.841 85.356,77.852 85.265,78.129 85.618 C 78.843 86.532,81.553 86.839,82.906 86.159 C 84.710 85.252,85.589 83.349,85.467 80.618 C 85.315 77.222,82.713 75.164,79.667 76.029 M90.494 75.987 C 89.415 76.199,87.515 77.708,87.061 78.716 C 86.326 80.346,86.909 85.000,87.847 85.000 C 87.917 85.000,88.201 85.227,88.479 85.504 C 90.746 87.771,96.500 86.099,96.500 83.173 C 96.500 82.462,94.080 82.685,93.411 83.458 C 92.227 84.828,89.500 83.867,89.500 82.080 C 89.500 82.036,91.085 82.000,93.023 82.000 L 96.546 82.000 96.462 80.522 C 96.270 77.163,93.856 75.328,90.494 75.987 M102.527 75.995 C 102.219 76.070,101.757 76.380,101.492 76.690 L 101.014 77.250 101.007 76.625 L 101.000 76.000 99.667 76.000 L 98.333 76.000 98.333 81.250 L 98.333 86.500 99.750 86.500 L 101.167 86.500 101.167 83.577 C 101.167 79.633,101.588 78.741,103.441 78.759 L 104.345 78.768 104.298 77.342 L 104.250 75.917 103.667 75.888 C 103.346 75.873,102.833 75.921,102.527 75.995 M92.575 78.403 C 93.131 78.635,93.341 78.892,93.662 79.739 L 93.825 80.167 91.671 80.167 L 89.517 80.167 89.685 79.687 C 90.086 78.534,91.445 77.930,92.575 78.403 M57.111 78.758 C 58.749 79.718,58.836 82.686,57.254 83.664 C 55.986 84.448,54.210 83.866,53.843 82.545 C 53.056 79.712,54.965 77.500,57.111 78.758 M69.516 78.912 C 70.931 79.838,70.796 82.920,69.307 83.680 C 67.944 84.375,66.474 83.821,65.948 82.414 C 64.950 79.748,67.287 77.455,69.516 78.912 M81.683 78.912 C 83.130 79.859,82.947 82.923,81.396 83.708 C 79.236 84.802,77.144 82.521,78.073 80.087 C 78.679 78.501,80.264 77.985,81.683 78.912 M324.153 88.625 C 324.233 89.200,324.245 89.212,324.300 88.771 C 324.333 88.508,324.294 88.227,324.213 88.147 C 324.129 88.063,324.104 88.267,324.153 88.625 " stroke="none" fill="#1c1c1c" fill-rule="evenodd"></path><path id="path2" d="" stroke="none" fill="#101480" fill-rule="evenodd"></path><path id="path3" d="" stroke="none" fill="#101480" fill-rule="evenodd"></path><path id="path4" d="" stroke="none" fill="#101480" fill-rule="evenodd"></path></g></svg>