<svg id="svg" version="1.1" xmlns="http://www.w3.org/2000/svg" xmlns:xlink="http://www.w3.org/1999/xlink" width="400" height="151.7110266159696" viewBox="0, 0, 400,151.7110266159696"><g id="svgg"><path id="path0" d="M322.333 74.583 L 322.333 102.667 327.917 102.667 L 333.500 102.667 333.500 93.641 C 333.500 84.626,333.500 84.615,333.833 84.917 C 334.017 85.083,334.167 85.282,334.167 85.360 C 334.167 85.480,334.817 86.337,337.816 90.167 C 337.995 90.396,338.394 90.921,338.703 91.333 C 339.011 91.746,339.861 92.856,340.590 93.801 C 341.320 94.746,342.172 95.871,342.484 96.301 C 342.796 96.731,343.152 97.143,343.276 97.217 C 343.399 97.290,343.500 97.440,343.501 97.550 C 343.501 97.660,343.747 98.018,344.048 98.344 C 344.348 98.671,344.875 99.346,345.220 99.844 C 345.564 100.343,346.186 101.181,346.601 101.708 L 347.357 102.667 353.928 102.667 C 358.581 102.667,360.500 102.613,360.500 102.484 C 360.500 102.246,359.895 101.381,359.287 100.750 C 359.022 100.475,358.697 100.044,358.565 99.792 C 358.433 99.540,358.254 99.333,358.167 99.333 C 358.080 99.333,357.897 99.127,357.761 98.875 C 357.625 98.623,357.305 98.178,357.049 97.886 C 356.793 97.594,356.133 96.778,355.583 96.071 C 354.688 94.922,354.150 94.258,352.756 92.583 C 352.527 92.308,352.169 91.854,351.961 91.573 C 351.753 91.293,351.488 90.955,351.372 90.823 C 351.074 90.485,348.216 86.868,347.417 85.818 C 347.050 85.337,346.549 84.712,346.302 84.430 C 345.655 83.688,343.791 81.322,343.469 80.833 L 343.194 80.417 351.847 71.814 C 356.606 67.082,360.500 63.164,360.500 63.106 C 360.500 63.048,357.592 63.000,354.038 63.000 L 347.577 63.000 340.539 70.042 L 333.501 77.083 333.500 61.792 L 333.500 46.500 327.917 46.500 L 322.333 46.500 322.333 74.583 M215.000 54.000 L 215.000 59.000 222.250 59.000 L 229.500 59.000 229.500 80.833 L 229.500 102.667 235.417 102.667 L 241.333 102.667 241.333 80.835 L 241.333 59.004 247.763 58.960 L 254.194 58.917 254.665 57.449 C 254.925 56.642,255.249 55.742,255.386 55.449 C 255.522 55.156,255.875 54.129,256.168 53.167 C 256.462 52.204,256.758 51.342,256.827 51.250 C 256.993 51.029,257.500 49.500,257.500 49.220 C 257.500 49.039,253.755 49.000,236.250 49.000 L 215.000 49.000 215.000 54.000 M262.708 61.944 C 262.410 61.986,262.167 62.089,262.167 62.172 C 262.167 62.255,262.049 62.278,261.905 62.223 C 261.762 62.167,261.480 62.200,261.280 62.296 C 261.080 62.391,260.542 62.562,260.083 62.675 C 259.137 62.909,257.628 63.502,257.494 63.693 C 257.445 63.763,257.114 63.942,256.758 64.091 C 254.883 64.874,250.177 69.421,250.168 70.458 C 250.167 70.573,250.087 70.667,249.990 70.667 C 249.893 70.667,249.856 70.735,249.908 70.819 C 249.960 70.903,249.936 70.997,249.856 71.027 C 249.658 71.103,248.833 72.757,248.833 73.078 C 248.833 73.218,248.768 73.333,248.689 73.333 C 248.521 73.333,247.950 75.015,247.670 76.333 C 247.563 76.837,247.410 77.400,247.330 77.583 C 246.671 79.080,246.665 86.988,247.320 88.583 C 247.395 88.767,247.621 89.582,247.822 90.396 C 248.188 91.877,249.447 94.804,249.924 95.281 C 250.063 95.421,250.318 95.809,250.488 96.144 C 250.861 96.874,253.623 99.833,253.933 99.833 C 254.052 99.833,254.210 99.940,254.283 100.070 C 254.526 100.501,257.564 102.174,258.750 102.530 C 259.392 102.722,259.992 102.938,260.084 103.010 C 261.358 103.999,273.430 103.995,275.307 103.005 C 275.459 102.924,276.333 102.661,277.250 102.419 C 278.167 102.178,279.307 101.796,279.784 101.572 C 280.260 101.348,280.850 101.089,281.095 100.996 C 281.538 100.827,281.539 100.825,281.440 99.455 C 281.386 98.701,281.293 96.602,281.234 94.792 C 281.116 91.200,281.011 90.928,280.073 91.801 C 279.895 91.966,279.111 92.376,278.329 92.712 C 277.547 93.047,276.685 93.430,276.412 93.562 C 276.140 93.695,275.204 93.966,274.333 94.166 C 273.462 94.366,272.637 94.568,272.500 94.617 C 272.362 94.665,272.025 94.729,271.750 94.760 C 271.475 94.790,270.612 94.899,269.833 95.001 C 268.216 95.214,265.390 95.088,265.026 94.786 C 264.892 94.675,264.775 94.610,264.766 94.643 C 264.736 94.754,263.368 94.330,262.460 93.929 C 260.301 92.974,258.013 89.839,257.733 87.452 L 257.621 86.500 270.644 86.500 L 283.667 86.500 283.663 83.042 C 283.660 78.942,283.070 74.114,282.519 73.667 C 282.463 73.621,282.234 73.033,282.010 72.360 C 280.371 67.421,274.919 62.680,270.417 62.280 C 270.233 62.263,270.033 62.180,269.971 62.094 C 269.855 61.933,263.676 61.805,262.708 61.944 M304.167 62.019 C 303.662 62.100,303.100 62.235,302.917 62.319 C 302.733 62.403,302.066 62.594,301.434 62.744 C 300.801 62.894,300.014 63.129,299.684 63.267 C 299.354 63.405,299.054 63.507,299.019 63.495 C 298.983 63.482,298.908 63.537,298.852 63.616 C 298.796 63.696,298.306 63.959,297.764 64.201 C 297.222 64.442,296.659 64.741,296.514 64.864 C 296.369 64.988,295.912 65.288,295.500 65.532 C 293.901 66.477,290.925 69.636,289.879 71.500 C 288.757 73.498,288.508 74.010,288.258 74.833 C 288.105 75.337,287.882 75.938,287.762 76.167 C 286.618 78.345,286.642 89.632,287.793 90.491 C 287.861 90.542,288.095 91.108,288.312 91.750 C 288.697 92.885,289.880 95.133,290.389 95.696 C 290.528 95.849,290.734 96.149,290.848 96.362 C 291.883 98.303,296.164 101.456,299.167 102.488 C 299.762 102.693,300.374 102.925,300.526 103.005 C 302.393 103.985,312.867 103.986,314.081 103.006 C 314.174 102.931,314.829 102.708,315.538 102.510 C 316.246 102.313,317.174 101.997,317.601 101.808 L 318.377 101.465 318.258 96.941 C 318.192 94.453,318.084 92.360,318.018 92.291 C 317.952 92.221,317.190 92.471,316.324 92.846 C 313.568 94.039,311.402 94.502,308.603 94.497 C 306.130 94.493,304.769 94.157,302.761 93.054 C 301.545 92.386,299.849 90.355,299.238 88.833 C 298.999 88.237,298.738 87.671,298.658 87.574 C 298.086 86.880,297.822 81.949,298.249 79.936 C 298.574 78.401,299.585 76.146,300.305 75.351 C 300.519 75.115,300.813 74.720,300.959 74.474 C 301.104 74.228,301.397 73.933,301.610 73.819 C 301.823 73.705,302.113 73.436,302.253 73.222 C 302.393 73.008,302.579 72.833,302.667 72.833 C 302.755 72.833,303.222 72.581,303.705 72.273 C 304.999 71.447,306.276 71.125,308.583 71.041 C 310.565 70.970,313.720 71.409,313.985 71.793 C 314.039 71.871,314.660 72.143,315.366 72.398 C 316.071 72.652,316.737 72.967,316.845 73.097 C 317.206 73.532,317.333 73.340,317.333 72.361 C 317.333 71.826,317.384 71.338,317.447 71.276 C 317.572 71.150,317.585 71.016,317.829 67.362 C 318.062 63.880,318.072 64.024,317.583 63.902 C 317.354 63.844,317.167 63.740,317.167 63.671 C 317.167 63.520,314.865 62.744,313.917 62.575 C 313.550 62.510,313.175 62.412,313.083 62.358 C 312.283 61.885,306.394 61.662,304.167 62.019 M269.271 70.891 C 271.035 71.759,272.807 73.992,272.829 75.375 C 272.831 75.535,272.903 75.667,272.988 75.667 C 273.073 75.667,273.190 76.098,273.247 76.625 C 273.304 77.152,273.386 77.752,273.429 77.958 L 273.506 78.333 265.579 78.333 L 257.652 78.333 257.763 77.708 C 257.825 77.365,258.062 76.671,258.291 76.167 C 258.520 75.662,258.838 74.950,258.998 74.583 C 259.505 73.421,261.334 71.618,262.532 71.099 C 263.110 70.848,263.733 70.577,263.917 70.497 C 265.172 69.945,267.731 70.134,269.271 70.891 " stroke="none" fill="#040c7c" fill-rule="evenodd"></path><path id="path1" d="M200.326 39.958 C 200.206 40.394,200.055 40.787,199.989 40.833 C 199.924 40.879,199.635 41.629,199.346 42.500 C 199.057 43.371,198.685 44.383,198.518 44.750 C 198.351 45.117,198.046 45.979,197.840 46.667 C 197.634 47.354,197.410 47.954,197.343 48.000 C 197.275 48.046,196.974 48.868,196.674 49.827 C 196.373 50.787,196.033 51.724,195.916 51.911 C 195.800 52.097,195.500 52.925,195.250 53.750 C 194.999 54.575,194.727 55.334,194.645 55.436 C 194.473 55.651,193.333 59.144,193.333 59.457 C 193.333 59.572,193.265 59.667,193.181 59.667 C 193.097 59.667,192.786 60.435,192.489 61.375 C 192.193 62.315,191.902 63.121,191.842 63.167 C 191.782 63.212,191.478 64.037,191.167 65.000 C 190.855 65.962,190.551 66.787,190.491 66.833 C 190.432 66.879,190.135 67.704,189.833 68.667 C 189.531 69.629,189.230 70.454,189.165 70.500 C 189.099 70.546,188.797 71.371,188.494 72.333 C 188.190 73.296,187.889 74.121,187.824 74.167 C 187.760 74.212,187.461 75.037,187.160 76.000 C 186.860 76.962,186.561 77.787,186.497 77.833 C 186.432 77.879,186.131 78.704,185.827 79.667 C 185.523 80.629,185.227 81.454,185.167 81.500 C 185.108 81.546,184.789 82.371,184.459 83.333 C 183.160 87.116,182.567 88.764,182.392 89.083 C 182.291 89.267,181.961 90.204,181.659 91.167 C 181.356 92.129,181.057 92.954,180.993 93.000 C 180.930 93.046,180.625 93.871,180.315 94.833 C 180.004 95.796,179.698 96.623,179.634 96.671 C 179.570 96.719,179.272 97.544,178.972 98.504 C 178.672 99.464,178.376 100.288,178.313 100.334 C 178.249 100.379,178.035 100.942,177.836 101.584 C 177.385 103.039,177.131 103.726,177.004 103.833 C 176.883 103.937,175.998 106.677,175.999 106.946 C 176.000 107.054,175.902 107.242,175.782 107.363 C 175.592 107.555,174.500 110.703,174.500 111.058 C 174.500 111.131,174.384 111.307,174.241 111.449 C 173.667 112.023,173.997 112.412,175.102 112.466 L 176.120 112.515 176.507 111.299 C 176.719 110.630,176.946 110.046,177.010 110.000 C 177.074 109.954,177.372 109.129,177.673 108.167 C 177.973 107.204,178.272 106.379,178.337 106.333 C 178.401 106.287,178.703 105.462,179.006 104.500 C 179.310 103.537,179.612 102.712,179.678 102.667 C 179.743 102.621,180.028 101.844,180.310 100.940 C 180.592 100.036,180.891 99.211,180.974 99.107 C 181.057 99.002,181.370 98.129,181.668 97.167 C 181.967 96.204,182.303 95.267,182.415 95.083 C 182.526 94.900,182.867 93.962,183.171 93.000 C 183.476 92.037,183.776 91.212,183.838 91.167 C 183.901 91.121,184.204 90.296,184.513 89.333 C 184.821 88.371,185.122 87.546,185.182 87.500 C 185.242 87.454,185.541 86.629,185.846 85.667 C 186.151 84.704,186.452 83.879,186.516 83.833 C 186.579 83.787,186.861 83.011,187.143 82.107 C 187.425 81.203,187.726 80.378,187.811 80.273 C 187.896 80.169,188.212 79.296,188.514 78.333 C 188.815 77.371,189.119 76.544,189.188 76.496 C 189.330 76.398,190.333 73.379,190.333 73.048 C 190.333 72.930,190.403 72.833,190.487 72.833 C 190.572 72.833,190.879 72.065,191.170 71.125 C 191.461 70.185,191.760 69.342,191.834 69.250 C 191.908 69.158,192.210 68.333,192.505 67.417 C 192.800 66.500,193.099 65.675,193.170 65.583 C 193.240 65.492,193.579 64.554,193.924 63.500 C 194.268 62.446,194.597 61.546,194.655 61.500 C 194.713 61.454,195.012 60.629,195.321 59.667 C 195.629 58.704,195.933 57.879,195.995 57.833 C 196.125 57.738,197.167 54.511,197.167 54.204 C 197.167 54.092,197.235 54.000,197.319 54.000 C 197.403 54.000,197.714 53.231,198.011 52.292 C 198.307 51.352,198.600 50.546,198.662 50.500 C 198.724 50.454,199.023 49.629,199.327 48.667 C 199.631 47.704,199.933 46.879,199.998 46.833 C 200.064 46.788,200.365 45.962,200.667 45.000 C 200.969 44.038,201.270 43.212,201.336 43.167 C 201.488 43.061,202.500 39.831,202.500 39.451 C 202.500 39.215,202.332 39.167,201.522 39.167 L 200.543 39.167 200.326 39.958 M89.333 68.083 C 89.333 70.604,89.272 72.667,89.198 72.667 C 89.123 72.667,88.842 72.432,88.573 72.145 C 87.045 70.517,81.339 70.322,80.028 71.853 C 79.880 72.026,79.675 72.167,79.571 72.167 C 79.272 72.167,77.815 73.837,77.545 74.490 C 77.409 74.816,77.153 75.406,76.974 75.801 C 76.578 76.678,76.284 79.088,76.421 80.333 C 76.562 81.606,76.864 83.000,77.000 83.000 C 77.062 83.000,77.215 83.308,77.339 83.684 C 77.463 84.060,77.775 84.592,78.032 84.868 C 78.290 85.143,78.500 85.417,78.500 85.476 C 78.500 85.601,79.599 86.500,79.753 86.500 C 79.810 86.500,79.964 86.607,80.095 86.738 C 81.166 87.808,87.199 87.812,87.609 86.743 C 87.660 86.609,87.790 86.500,87.897 86.500 C 88.005 86.500,88.345 86.269,88.654 85.987 C 89.324 85.375,89.494 85.520,89.497 86.708 L 89.500 87.500 91.083 87.500 L 92.667 87.500 92.667 75.500 L 92.667 63.500 91.000 63.500 L 89.333 63.500 89.333 68.083 M39.500 75.917 L 39.500 87.500 41.083 87.500 L 42.667 87.500 42.667 82.917 L 42.667 78.333 44.744 78.333 C 46.729 78.333,46.830 78.350,47.019 78.708 C 47.128 78.915,47.268 79.121,47.330 79.167 C 47.393 79.212,47.692 79.794,47.996 80.458 C 48.301 81.123,48.600 81.667,48.661 81.667 C 48.723 81.667,49.020 82.229,49.322 82.917 C 49.625 83.604,49.925 84.167,49.990 84.167 C 50.055 84.167,50.273 84.499,50.476 84.905 C 50.679 85.311,51.035 85.817,51.269 86.030 C 51.502 86.243,51.822 86.546,51.979 86.704 C 52.629 87.353,54.597 87.754,56.262 87.576 L 57.333 87.461 57.333 86.501 C 57.333 84.588,57.297 84.535,56.025 84.561 C 54.608 84.590,54.044 84.219,53.324 82.784 C 52.094 80.331,51.514 79.237,51.344 79.046 C 50.934 78.586,50.821 77.993,51.127 77.899 C 53.026 77.312,54.824 75.537,55.085 73.992 C 55.146 73.631,55.264 73.293,55.348 73.241 C 55.559 73.110,55.545 69.500,55.333 69.500 C 55.242 69.500,55.167 69.360,55.167 69.188 C 55.167 67.977,53.617 66.103,51.880 65.213 C 50.405 64.458,49.357 64.340,44.042 64.337 L 39.500 64.333 39.500 75.917 M105.000 75.901 L 105.000 87.500 109.708 87.499 C 115.332 87.499,116.691 87.330,118.614 86.396 C 120.161 85.645,122.325 83.619,122.658 82.611 C 122.768 82.275,122.922 82.000,122.999 82.000 C 123.213 82.000,123.801 80.071,124.016 78.667 C 124.437 75.918,123.810 70.334,123.026 69.849 C 122.927 69.788,122.736 69.475,122.602 69.154 C 122.357 68.568,120.580 66.500,120.321 66.500 C 120.246 66.500,120.001 66.330,119.777 66.123 C 119.553 65.915,118.968 65.603,118.477 65.428 C 117.985 65.254,117.546 65.058,117.500 64.993 C 117.232 64.614,115.384 64.456,110.375 64.382 L 105.000 64.302 105.000 75.901 M49.772 67.708 C 52.436 69.170,53.012 72.258,51.002 74.300 C 49.965 75.352,49.297 75.500,45.571 75.500 L 42.667 75.500 42.667 71.417 L 42.667 67.333 45.878 67.333 C 48.894 67.333,49.130 67.356,49.772 67.708 M115.583 67.615 C 115.767 67.724,116.334 67.995,116.845 68.217 C 122.067 70.489,122.342 80.844,117.250 83.451 C 116.792 83.685,116.379 83.930,116.333 83.995 C 116.101 84.324,114.419 84.500,111.510 84.500 L 108.333 84.500 108.333 75.902 L 108.333 67.304 111.792 67.361 C 114.065 67.398,115.364 67.485,115.583 67.615 M63.711 71.132 C 63.230 71.289,62.686 71.548,62.500 71.708 C 62.315 71.869,62.097 72.000,62.016 72.000 C 61.704 72.000,60.011 73.878,59.831 74.424 C 59.726 74.741,59.578 75.000,59.500 75.000 C 59.423 75.000,59.223 75.394,59.055 75.875 C 58.430 77.668,58.776 83.667,59.505 83.667 C 59.594 83.667,59.667 83.754,59.667 83.860 C 59.667 84.227,60.984 85.796,61.616 86.183 C 61.965 86.396,62.346 86.665,62.464 86.779 C 63.680 87.963,69.689 87.807,71.168 86.553 C 72.949 85.044,74.000 83.409,74.000 82.149 C 74.000 81.722,70.676 81.990,70.566 82.426 C 69.762 85.629,63.958 85.458,62.680 82.194 C 62.476 81.675,62.240 81.120,62.155 80.961 C 61.719 80.147,61.575 80.167,68.021 80.167 L 74.042 80.167 73.962 78.292 C 73.888 76.547,73.406 74.441,73.017 74.167 C 72.952 74.121,72.733 73.810,72.530 73.476 C 72.327 73.142,71.881 72.658,71.539 72.400 C 71.197 72.141,70.842 71.844,70.750 71.739 C 70.044 70.929,65.528 70.539,63.711 71.132 M132.750 70.943 C 130.251 71.479,127.901 73.710,127.317 76.103 C 127.208 76.550,127.036 77.022,126.934 77.151 C 126.688 77.463,126.698 81.479,126.945 81.635 C 127.044 81.698,127.179 82.002,127.246 82.309 C 127.461 83.298,128.026 84.406,128.520 84.804 C 128.784 85.017,129.000 85.279,129.000 85.387 C 129.000 85.495,129.357 85.805,129.792 86.076 C 130.227 86.347,130.621 86.615,130.667 86.671 C 131.236 87.368,134.705 87.814,136.801 87.459 C 140.240 86.876,142.985 83.997,142.998 80.958 C 142.999 80.706,143.075 80.500,143.167 80.500 C 143.377 80.500,143.389 78.102,143.181 77.706 C 143.097 77.547,142.938 76.967,142.828 76.417 C 142.644 75.502,142.115 74.203,141.844 74.000 C 141.783 73.954,141.531 73.649,141.286 73.321 C 139.847 71.404,135.827 70.284,132.750 70.943 M150.179 71.248 C 149.590 71.467,149.043 71.763,148.962 71.906 C 148.882 72.049,148.719 72.167,148.600 72.167 C 148.277 72.167,146.827 73.807,146.546 74.490 C 146.412 74.816,146.197 75.308,146.070 75.583 C 145.374 77.083,145.333 82.500,146.017 82.500 C 146.099 82.500,146.167 82.613,146.167 82.751 C 146.167 83.563,148.195 86.333,148.790 86.333 C 148.911 86.333,149.052 86.442,149.103 86.575 C 149.228 86.901,151.002 87.457,152.350 87.591 C 154.487 87.803,156.450 87.279,157.635 86.179 C 158.361 85.505,158.333 85.474,158.333 86.969 C 158.333 90.017,156.839 91.417,153.583 91.417 C 150.997 91.417,150.074 90.982,149.575 89.529 L 149.365 88.917 147.742 88.869 L 146.120 88.821 146.223 89.535 C 146.465 91.214,147.542 92.946,148.541 93.263 C 148.739 93.326,149.002 93.478,149.125 93.601 C 150.034 94.510,156.899 94.526,157.870 93.621 C 157.991 93.508,158.452 93.229,158.895 93.000 C 159.399 92.739,159.893 92.303,160.214 91.833 C 160.497 91.421,160.780 91.046,160.844 91.000 C 161.501 90.530,161.575 89.503,161.632 80.042 L 161.687 70.833 160.101 70.833 L 158.516 70.833 158.466 71.866 L 158.417 72.900 157.544 72.124 C 156.002 70.752,152.603 70.348,150.179 71.248 M68.285 73.960 C 69.374 74.447,70.667 76.209,70.667 77.206 L 70.667 77.667 66.313 77.667 C 62.857 77.667,61.992 77.624,62.118 77.458 C 62.205 77.344,62.411 76.875,62.575 76.417 C 63.366 74.217,66.168 73.012,68.285 73.960 M86.127 73.903 C 87.155 74.265,88.407 75.572,88.775 76.667 C 88.945 77.171,89.140 77.608,89.208 77.639 C 89.385 77.718,89.364 80.445,89.184 80.794 C 89.102 80.953,88.895 81.421,88.725 81.833 C 87.195 85.550,81.779 85.667,80.339 82.015 C 78.450 77.223,81.887 72.407,86.127 73.903 M136.511 73.834 C 137.770 74.183,139.180 75.813,139.606 77.410 C 139.989 78.850,139.802 81.487,139.277 82.044 C 139.171 82.157,138.973 82.463,138.839 82.723 C 137.365 85.576,132.889 85.345,130.944 82.316 C 129.503 80.073,130.465 75.093,132.500 74.259 C 133.953 73.665,135.364 73.515,136.511 73.834 M155.133 73.905 C 156.328 74.326,157.993 76.338,157.998 77.365 C 157.999 77.520,158.075 77.693,158.167 77.750 C 158.374 77.878,158.388 80.400,158.183 80.794 C 158.100 80.953,157.795 81.590,157.505 82.210 C 157.138 82.993,156.829 83.413,156.489 83.589 C 156.220 83.728,156.000 83.909,156.000 83.991 C 156.000 84.592,152.910 84.902,151.820 84.410 C 148.070 82.719,148.022 75.547,151.750 73.968 C 152.576 73.618,154.233 73.587,155.133 73.905 " stroke="none" fill="#1c1c1c" fill-rule="evenodd"></path><path id="path2" d="" stroke="none" fill="#101480" fill-rule="evenodd"></path><path id="path3" d="" stroke="none" fill="#101480" fill-rule="evenodd"></path><path id="path4" d="" stroke="none" fill="#101480" fill-rule="evenodd"></path></g></svg>