<?xml version="1.0" encoding="UTF-8" standalone="no"?>
<svg
   xmlns:dc="http://purl.org/dc/elements/1.1/"
   xmlns:cc="http://creativecommons.org/ns#"
   xmlns:rdf="http://www.w3.org/1999/02/22-rdf-syntax-ns#"
   xmlns:svg="http://www.w3.org/2000/svg"
   xmlns="http://www.w3.org/2000/svg"
   viewBox="0 0 816 1056"
   height="1056"
   width="816"
   xml:space="preserve"
   id="svg2"
   version="1.1"><metadata
     id="metadata8"><rdf:RDF><cc:Work
         rdf:about=""><dc:format>image/svg+xml</dc:format><dc:type
           rdf:resource="http://purl.org/dc/dcmitype/StillImage" /></cc:Work></rdf:RDF></metadata><defs
     id="defs6"><clipPath
       id="clipPath30"
       clipPathUnits="userSpaceOnUse"><path
         id="path28"
         d="M 0,792 H 612 V 0 H 0 Z" /></clipPath></defs><g
     transform="matrix(1.3333333,0,0,-1.3333333,0,1056)"
     id="g10"><g
       transform="translate(161.0894,493.6157)"
       id="g12"><path
         id="path14"
         style="fill:#ffffff;fill-opacity:1;fill-rule:nonzero;stroke:none"
         d="m 0,0 h -31.043 l 12.415,12.418 h 31.046 z" /></g><g
       transform="translate(147.604,492.1953)"
       id="g16"><path
         id="path18"
         style="fill:#ffffff;fill-opacity:1;fill-rule:nonzero;stroke:none"
         d="M 0,0 21.951,-21.158 H 4.385 L -17.564,0 Z" /></g><g
       transform="translate(157.144,457.0742)"
       id="g20"><path
         id="path22"
         style="fill:#ffffff;fill-opacity:1;fill-rule:nonzero;stroke:none"
         d="m 0,0 h -31.044 l 12.418,12.419 h 31.043 z" /></g><g
       id="g24"><g
         clip-path="url(#clipPath30)"
         id="g26"><g
           transform="translate(264.4131,482.8779)"
           id="g32"><path
             id="path34"
             style="fill:#ffffff;fill-opacity:1;fill-rule:nonzero;stroke:none"
             d="m 0,0 h -4.45 v 16.291 h 5.272 c 3.902,0 8.829,-0.205 8.829,-7.803 C 9.651,1.163 5.064,0 0,0 m 6.229,-3.971 c 3.765,1.233 9.035,5.067 9.035,12.596 0,12.116 -8.624,12.458 -13.895,12.458 h -10.61 c -0.547,0 -0.82,-0.275 -0.82,-0.822 v -45.243 c 0,-0.081 0.047,-0.112 0.06,-0.181 h 5.491 c 0.012,0.069 0.06,0.1 0.06,0.181 v 20.534 h 4.929 l 10.738,-20.715 h 6.534 z" /></g><g
           transform="translate(328.7607,475.8286)"
           id="g36"><path
             id="path38"
             style="fill:#ffffff;fill-opacity:1;fill-rule:nonzero;stroke:none"
             d="m 0,0 4.175,15.127 c 0.478,1.847 1.164,4.86 1.437,6.503 H 5.749 C 6.093,19.712 6.776,17.25 7.325,15.127 L 11.431,0 Z M 22.657,-17.18 8.897,27.38 C 8.624,28.133 8.419,28.133 7.872,28.133 H 3.833 c -0.752,0 -0.821,-0.07 -1.027,-0.753 l -13.69,-44.56 c -0.16,-0.376 -0.231,-0.66 -0.289,-0.934 h 6.334 c 0.016,0.038 0.037,0.07 0.048,0.112 L -1.3,-4.791 h 14.031 l 3.832,-13.211 c 0.012,-0.042 0.034,-0.074 0.048,-0.112 h 6.325 c -0.076,0.274 -0.171,0.558 -0.279,0.934" /></g><g
           transform="translate(364.3574,457.8955)"
           id="g40"><path
             id="path42"
             style="fill:#ffffff;fill-opacity:1;fill-rule:nonzero;stroke:none"
             d="m 0,0 1.027,35.183 c 0.069,1.369 0,3.079 -0.068,4.243 l 0.137,0.137 c 0.068,-1.506 0.273,-3.217 0.822,-4.86 l 7.939,-23.82 c 0.206,-0.616 0.411,-0.753 1.026,-0.753 h 2.055 c 0.617,0 0.753,0.137 1.027,0.753 l 8.281,23.82 c 0.547,1.643 0.753,3.354 0.822,4.86 l 0.137,-0.137 C 23.136,38.262 23.068,36.552 23.136,35.183 L 24.231,0 c 0,-0.081 0.048,-0.111 0.06,-0.181 h 5.493 c 0.011,0.07 0.061,0.1 0.061,0.181 l -2.671,45.244 c 0,0.547 -0.274,0.822 -0.82,0.822 h -4.451 c -0.547,0 -0.547,-0.137 -0.753,-0.686 L 13.074,21.765 c -0.342,-1.027 -0.615,-2.806 -0.959,-4.243 h -0.136 c -0.274,1.506 -0.547,3.216 -0.889,4.243 L 3.012,45.38 c -0.205,0.549 -0.205,0.686 -0.754,0.686 h -4.447 c -0.549,0 -0.823,-0.275 -0.823,-0.822 L -5.613,0 c 0,-0.081 0.049,-0.111 0.06,-0.181 h 5.492 C -0.048,-0.111 0,-0.081 0,0" /></g><g
           transform="translate(202.9404,504.9185)"
           id="g44"><path
             id="path46"
             style="fill:#ffffff;fill-opacity:1;fill-rule:nonzero;stroke:none"
             d="m 0,0 c -7.119,0 -13.622,-4.381 -13.622,-12.252 0,-14.169 19.988,-12.457 19.988,-23.82 0,-4.587 -3.012,-7.803 -8.145,-7.803 -4.793,0 -8.968,2.259 -10.337,2.875 -0.193,0.115 -0.381,0.199 -0.561,0.259 l -1.865,-4.566 c 0.036,-0.021 0.056,-0.057 0.098,-0.074 1.028,-0.479 6.093,-3.423 12.459,-3.423 8.351,0 14.511,5.065 14.511,13.417 0,4.518 -1.848,7.734 -5.544,10.745 -5.476,4.517 -14.443,5.819 -14.443,13.006 0,4.586 3.148,6.708 7.255,6.708 3.901,0 7.393,-1.711 8.694,-2.395 0.062,-0.036 0.12,-0.056 0.18,-0.09 l 1.882,4.605 C 9.252,-2.137 5.125,0 0,0" /></g><g
           transform="translate(220.5347,503.9614)"
           id="g48"><path
             id="path50"
             style="fill:#ffffff;fill-opacity:1;fill-rule:nonzero;stroke:none"
             d="m 0,0 c -0.753,0 -0.957,-0.412 -0.957,-0.89 v -3.081 c 0,-0.547 0.273,-0.822 0.82,-0.822 h 10.2 v -41.273 c 0,-0.081 0.047,-0.111 0.06,-0.181 h 5.491 c 0.013,0.07 0.06,0.1 0.06,0.181 v 41.273 h 9.158 L 26.79,0 Z" /></g><g
           transform="translate(312.5352,503.9614)"
           id="g52"><path
             id="path54"
             style="fill:#ffffff;fill-opacity:1;fill-rule:nonzero;stroke:none"
             d="m 0,0 h -21.287 c -0.549,0 -0.822,-0.275 -0.822,-0.822 v -45.244 c 0,-0.081 0.047,-0.111 0.06,-0.181 H 0.727 c 0.009,0.099 0.027,0.186 0.027,0.318 v 3.614 c 0,0.481 -0.275,0.754 -0.822,0.754 h -16.428 v 16.782 H -3.08 c 0.752,0 0.889,0.137 0.889,0.89 v 3.012 c 0,0.752 -0.137,0.889 -0.889,0.889 h -13.416 v 15.195 h 14.735 l 1.95,4.778 C 0.125,-0.011 0.078,0 0,0" /></g></g></g></g></svg>