<svg id="svg" version="1.1" xmlns="http://www.w3.org/2000/svg" xmlns:xlink="http://www.w3.org/1999/xlink" width="400" height="239.73655323819978" viewBox="0, 0, 400,239.73655323819978"><g id="svgg"><path id="path0" d="M261.690 120.088 L 261.690 169.923 271.459 169.923 L 281.227 169.923 281.283 153.616 L 281.339 137.309 293.826 153.616 L 306.313 169.923 317.811 169.923 C 324.134 169.923,329.308 169.849,329.306 169.759 C 329.305 169.668,322.528 161.098,314.245 150.714 C 305.963 140.329,298.926 131.496,298.607 131.085 L 298.029 130.336 313.614 114.900 L 329.199 99.463 317.893 99.457 L 306.588 99.451 293.908 112.129 L 281.229 124.806 281.229 97.529 L 281.229 70.252 271.460 70.252 L 261.690 70.252 261.690 120.088 M70.472 83.095 L 70.472 91.767 83.535 91.767 L 96.597 91.767 96.597 130.845 L 96.597 169.923 106.806 169.923 L 117.014 169.923 117.014 130.847 L 117.014 91.771 128.457 91.714 L 139.899 91.658 142.815 83.502 C 144.418 79.017,145.796 75.139,145.876 74.885 L 146.023 74.424 108.248 74.424 L 70.472 74.424 70.472 83.095 M155.982 97.720 C 138.752 100.215,127.324 115.033,127.303 134.907 C 127.273 162.782,147.927 177.248,177.709 170.211 C 180.908 169.456,187.469 167.167,188.323 166.509 C 188.421 166.434,187.716 150.321,187.609 150.214 C 187.560 150.166,186.823 150.533,185.970 151.031 C 176.230 156.719,162.178 158.315,154.822 154.568 C 149.914 152.068,146.213 146.663,146.213 141.996 L 146.213 140.944 169.244 140.944 L 192.275 140.944 192.441 139.791 C 192.978 136.063,192.461 127.402,191.410 122.522 C 187.604 104.852,173.742 95.147,155.982 97.720 M229.734 97.800 C 208.654 101.015,195.479 119.822,198.802 141.956 C 201.875 162.429,219.142 174.410,241.164 171.350 C 247.083 170.527,254.227 168.080,254.226 166.875 C 254.225 165.630,253.546 151.607,253.484 151.544 C 253.447 151.508,252.583 151.869,251.564 152.346 C 244.842 155.496,236.997 156.565,231.284 155.108 C 213.681 150.620,213.216 120.725,230.652 114.401 C 236.459 112.295,245.238 113.295,251.100 116.730 C 251.623 117.037,252.113 117.225,252.189 117.149 C 252.329 117.009,253.323 104.155,253.339 102.280 L 253.348 101.266 251.810 100.579 C 246.052 98.004,236.381 96.787,229.734 97.800 M164.851 112.302 C 170.205 113.564,173.953 118.589,174.466 125.192 L 174.599 126.894 160.292 126.894 L 145.985 126.894 146.116 126.290 C 148.349 115.970,156.043 110.226,164.851 112.302 " stroke="none" fill="#fcfcfc" fill-rule="evenodd"></path><path id="path1" d="" stroke="none" fill="#100fcfc" fill-rule="evenodd"></path><path id="path2" d="" stroke="none" fill="#100fcfc" fill-rule="evenodd"></path><path id="path3" d="" stroke="none" fill="#100fcfc" fill-rule="evenodd"></path><path id="path4" d="" stroke="none" fill="#100fcfc" fill-rule="evenodd"></path></g></svg>