<svg xmlns="http://www.w3.org/2000/svg" height="800" width="1200" version="1.0" viewBox="-8.52165 -5.5725 73.8543 33.435"><path d="M10.189 4.712v17.142H5.737V4.712H0V.943h16.534l-1.343 3.769zm15.663 16.394c-1.198.565-2.84 1.184-5.706 1.184-5.018 0-7.683-3.574-7.683-8.06 0-4.731 3.01-8.244 7.397-8.244 4.516 0 6.931 3.198 6.931 8.214 0 .659-.064 1.098-.064 1.317H16.57c-.063 1.128.878 3.48 3.951 3.48 2.776 0 4.522-1.021 5.183-1.429zM19.954 9.122c-1.911 0-3.103 1.44-3.416 3.356h6.335c0-.85-.315-3.356-2.919-3.356m36.857 12.729l-6.897-8.654 6.833-6.771h-4.891l-5.611 5.643V0h-4.23v21.851h4.23v-7.243l5.548 7.243zm-16.64-3.993c-.287.166-1.807.952-3.659.952-2.823 0-4.203-2.072-4.203-4.767 0-2.194 1.505-4.64 4.325-4.64 1.757 0 3.042.754 3.262.91l.244-3.466c-.901-.447-2.201-.862-3.882-.862-4.639 0-8.181 3.479-8.181 8.277 0 4.576 3.072 8.026 7.9 8.026 1.864 0 3.336-.485 4.343-.969z"/></svg>